<svg xmlns="http://www.w3.org/2000/svg" width="1024" height="1024" viewBox="0 0 512 512">
  <path d="M 476.00,256.00 L 475.89,321.88 L 475.58,342.88 L 475.04,358.10 L 474.30,370.42 L 473.34,380.93 L 472.16,390.14 L 470.76,398.37 L 469.14,405.82 L 467.29,412.61 L 465.22,418.85 L 462.90,424.59 L 460.34,429.91 L 457.54,434.83 L 454.47,439.39 L 451.14,443.61 L 447.52,447.52 L 443.61,451.14 L 439.39,454.47 L 434.83,457.54 L 429.91,460.34 L 424.59,462.90 L 418.85,465.22 L 412.61,467.29 L 405.82,469.14 L 398.37,470.76 L 390.14,472.16 L 380.93,473.34 L 370.42,474.30 L 358.10,475.04 L 342.88,475.58 L 321.88,475.89 L 256.00,476.00 L 190.12,475.89 L 169.12,475.58 L 153.90,475.04 L 141.58,474.30 L 131.07,473.34 L 121.86,472.16 L 113.63,470.76 L 106.18,469.14 L 99.39,467.29 L 93.15,465.22 L 87.41,462.90 L 82.09,460.34 L 77.17,457.54 L 72.61,454.47 L 68.39,451.14 L 64.48,447.52 L 60.86,443.61 L 57.53,439.39 L 54.46,434.83 L 51.66,429.91 L 49.10,424.59 L 46.78,418.85 L 44.71,412.61 L 42.86,405.82 L 41.24,398.37 L 39.84,390.14 L 38.66,380.93 L 37.70,370.42 L 36.96,358.10 L 36.42,342.88 L 36.11,321.88 L 36.00,256.00 L 36.11,190.12 L 36.42,169.12 L 36.96,153.90 L 37.70,141.58 L 38.66,131.07 L 39.84,121.86 L 41.24,113.63 L 42.86,106.18 L 44.71,99.39 L 46.78,93.15 L 49.10,87.41 L 51.66,82.09 L 54.46,77.17 L 57.53,72.61 L 60.86,68.39 L 64.48,64.48 L 68.39,60.86 L 72.61,57.53 L 77.17,54.46 L 82.09,51.66 L 87.41,49.10 L 93.15,46.78 L 99.39,44.71 L 106.18,42.86 L 113.63,41.24 L 121.86,39.84 L 131.07,38.66 L 141.58,37.70 L 153.90,36.96 L 169.12,36.42 L 190.12,36.11 L 256.00,36.00 L 321.88,36.11 L 342.88,36.42 L 358.10,36.96 L 370.42,37.70 L 380.93,38.66 L 390.14,39.84 L 398.37,41.24 L 405.82,42.86 L 412.61,44.71 L 418.85,46.78 L 424.59,49.10 L 429.91,51.66 L 434.83,54.46 L 439.39,57.53 L 443.61,60.86 L 447.52,64.48 L 451.14,68.39 L 454.47,72.61 L 457.54,77.17 L 460.34,82.09 L 462.90,87.41 L 465.22,93.15 L 467.29,99.39 L 469.14,106.18 L 470.76,113.63 L 472.16,121.86 L 473.34,131.07 L 474.30,141.58 L 475.04,153.90 L 475.58,169.12 L 475.89,190.12 Z" fill="#6C5CE7"/>
  <g transform="translate(256 256) scale(0.98) translate(-256 -256)">
    <g fill="none" stroke="#FFFFFF" stroke-width="24" stroke-linecap="round">
      <path d="M 212 262 C 180 308 196 348 246 360"/>
      <path d="M 234 276 C 218 318 224 348 252 362"/>
      <path d="M 278 276 C 294 318 288 348 260 362"/>
      <path d="M 300 262 C 332 308 316 348 266 360"/>
    </g>
    <circle cx="256" cy="200" r="88" fill="#FFFFFF"/>
    
    <circle cx="206" cy="224" r="9" fill="#FF8FB1" opacity="0.5"/>
    <circle cx="306" cy="224" r="9" fill="#FF8FB1" opacity="0.5"/>
    <g fill="none" stroke="#FFFFFF" stroke-width="9" stroke-linecap="round" stroke-linejoin="round" opacity="0.9">
      <path d="M 96 234 L 128 256 L 96 278"/>
      <path d="M 416 234 L 384 256 L 416 278"/>
    </g>
  </g>
</svg>