<svg xmlns="http://www.w3.org/2000/svg" width="1024" height="1024" viewBox="0 0 512 512">
  <path d="M 461.00,256.00 L 460.90,317.39 L 460.60,336.96 L 460.11,351.14 L 459.42,362.62 L 458.52,372.41 L 457.42,380.99 L 456.12,388.66 L 454.61,395.60 L 452.89,401.93 L 450.95,407.74 L 448.79,413.10 L 446.41,418.05 L 443.80,422.63 L 440.94,426.88 L 437.83,430.82 L 434.46,434.46 L 430.82,437.83 L 426.88,440.94 L 422.63,443.80 L 418.05,446.41 L 413.10,448.79 L 407.74,450.95 L 401.93,452.89 L 395.60,454.61 L 388.66,456.12 L 380.99,457.42 L 372.41,458.52 L 362.62,459.42 L 351.14,460.11 L 336.96,460.60 L 317.39,460.90 L 256.00,461.00 L 194.61,460.90 L 175.04,460.60 L 160.86,460.11 L 149.38,459.42 L 139.59,458.52 L 131.01,457.42 L 123.34,456.12 L 116.40,454.61 L 110.07,452.89 L 104.26,450.95 L 98.90,448.79 L 93.95,446.41 L 89.37,443.80 L 85.12,440.94 L 81.18,437.83 L 77.54,434.46 L 74.17,430.82 L 71.06,426.88 L 68.20,422.63 L 65.59,418.05 L 63.21,413.10 L 61.05,407.74 L 59.11,401.93 L 57.39,395.60 L 55.88,388.66 L 54.58,380.99 L 53.48,372.41 L 52.58,362.62 L 51.89,351.14 L 51.40,336.96 L 51.10,317.39 L 51.00,256.00 L 51.10,194.61 L 51.40,175.04 L 51.89,160.86 L 52.58,149.38 L 53.48,139.59 L 54.58,131.01 L 55.88,123.34 L 57.39,116.40 L 59.11,110.07 L 61.05,104.26 L 63.21,98.90 L 65.59,93.95 L 68.20,89.37 L 71.06,85.12 L 74.17,81.18 L 77.54,77.54 L 81.18,74.17 L 85.12,71.06 L 89.37,68.20 L 93.95,65.59 L 98.90,63.21 L 104.26,61.05 L 110.07,59.11 L 116.40,57.39 L 123.34,55.88 L 131.01,54.58 L 139.59,53.48 L 149.38,52.58 L 160.86,51.89 L 175.04,51.40 L 194.61,51.10 L 256.00,51.00 L 317.39,51.10 L 336.96,51.40 L 351.14,51.89 L 362.62,52.58 L 372.41,53.48 L 380.99,54.58 L 388.66,55.88 L 395.60,57.39 L 401.93,59.11 L 407.74,61.05 L 413.10,63.21 L 418.05,65.59 L 422.63,68.20 L 426.88,71.06 L 430.82,74.17 L 434.46,77.54 L 437.83,81.18 L 440.94,85.12 L 443.80,89.37 L 446.41,93.95 L 448.79,98.90 L 450.95,104.26 L 452.89,110.07 L 454.61,116.40 L 456.12,123.34 L 457.42,131.01 L 458.52,139.59 L 459.42,149.38 L 460.11,160.86 L 460.60,175.04 L 460.90,194.61 Z" fill="#0EA5E9"/>
  <g transform="translate(256 256) scale(0.92) translate(-256 -256)">
    <g fill="none" stroke="#FFFFFF" stroke-width="24" stroke-linecap="round">
      <path d="M 212 262 C 180 308 196 348 246 360"/>
      <path d="M 234 276 C 218 318 224 348 252 362"/>
      <path d="M 278 276 C 294 318 288 348 260 362"/>
      <path d="M 300 262 C 332 308 316 348 266 360"/>
    </g>
    <circle cx="256" cy="200" r="88" fill="#FFFFFF"/>
    <circle cx="232" cy="196" r="15" fill="#0369A1"/>
    <circle cx="280" cy="196" r="15" fill="#0369A1"/>
    <circle cx="237" cy="191" r="5.5" fill="#FFFFFF"/>
    <circle cx="285" cy="191" r="5.5" fill="#FFFFFF"/>
    <circle cx="206" cy="224" r="9" fill="#FF8FB1" opacity="0.5"/>
    <circle cx="306" cy="224" r="9" fill="#FF8FB1" opacity="0.5"/>
    <g fill="none" stroke="#FFFFFF" stroke-width="9" stroke-linecap="round" stroke-linejoin="round" opacity="0.9">
      <path d="M 96 234 L 128 256 L 96 278"/>
      <path d="M 416 234 L 384 256 L 416 278"/>
    </g>
  </g>
</svg>